<?xml version="1.0" encoding="UTF-8"?>
<!-- Generated by Pixelmator Pro 3.7 -->
<svg width="800" height="902" viewBox="0 0 800 902" xmlns="http://www.w3.org/2000/svg">
    <g id="Group">
        <path id="Path" fill="#000000" stroke="none" d="M 264.429871 0.220459 C 230.264359 2.707764 198.80574 19.460205 175.906784 47.332275 C 164.274429 61.451172 158.78746 71.034424 149.788834 93.054077 C 143.716583 107.904541 142.399704 109.367615 134.717957 109.075012 C 120.817627 108.636108 120.598152 108.636108 118.549683 111.123352 C 117.525444 112.440125 115.55014 115.512695 114.160103 118.073059 C 109.258415 127.290588 106.990471 130.143616 100.771904 134.898682 C 82.847809 148.871277 60.460972 158.308289 33.977207 162.990173 C 10.273504 167.160034 8.663993 167.672119 4.567057 172.280884 C -2.236784 180.035278 -1.285709 194.812561 6.542366 202.640137 L 8.883472 205.05426 L 16.857866 204.542175 L 24.759102 204.030029 L 31.92874 208.858337 C 42.171082 215.661743 47.950687 218.075806 62.143646 221.440979 C 88.481094 227.7323 122.427139 224.293945 150.666733 212.442871 C 156.519516 209.955627 163.542816 206.517334 169.907715 202.859619 C 173.273041 200.957581 174.077805 200.957581 177.150497 202.713257 C 180.076889 204.395874 195.0746 209.443542 202.244232 211.126099 C 229.679077 217.710022 234.873413 219.612061 239.628784 224.879211 C 241.09198 226.561768 243.140457 229.707458 244.164688 231.97522 C 245.920502 235.706177 246.066818 236.876648 246.066818 245.216248 C 246.066818 253.190125 245.847351 255.165405 244.018356 260.871399 C 239.701935 274.624573 233.995499 283.256836 209.560196 312.518799 C 166.615524 364.093018 142.107071 410.692688 132.888962 458.46283 C 129.743088 474.703247 129.157822 480.921387 129.157822 500.526917 C 129.230988 516.694153 129.450455 521.59552 130.767334 530.154663 C 135.669022 561.903931 145.765045 588.82489 163.250183 616.623779 C 175.175201 635.644043 196.90358 660.004639 216.87616 676.903381 C 238.604538 695.118958 256.382324 706.970032 281.622375 719.772156 C 293.620575 725.843994 299.473297 728.4776 314.178406 734.62262 C 325.006042 739.085083 356.098816 748.15625 374.754517 752.25293 C 377.022491 752.765015 379.290405 753.569702 379.729401 754.081787 C 380.6073 755.179138 376.94931 769.224854 371.242889 786.928345 C 370.36496 789.708252 368.974915 794.317017 368.316467 797.170044 C 367.5849 799.949951 366.707001 802.656677 366.341187 803.168762 C 365.829041 803.827148 353.904053 804.119751 317.982697 804.266113 L 270.282654 804.485535 L 266.990448 806.314453 C 262.674042 808.728516 261.137695 811.801025 261.137695 817.946045 C 261.137695 821.311157 261.50351 823.066895 262.381409 824.017883 C 263.186157 824.968933 263.332489 825.627319 262.820374 826.139404 C 262.454559 826.505188 256.016541 828.334045 248.627426 830.236084 C 241.238297 832.064941 233.922333 834.186462 232.385986 834.99115 C 228.435364 836.966309 226.752701 840.112 226.752701 845.37915 C 226.752701 849.54895 226.899017 849.841614 229.898575 852.694641 C 233.19075 855.913452 236.921875 857.230225 246.871582 858.912781 C 249.724808 859.424866 254.333862 860.229614 257.113922 860.814819 C 259.967163 861.326904 264.210419 862.131592 266.624664 862.570557 C 269.03894 863.00946 273.64798 863.814209 276.940155 864.472595 C 280.23233 865.0578 283.817169 865.569885 284.987732 865.569885 C 288.133606 865.569885 288.865173 866.374634 289.596771 870.324951 C 290.328369 874.27533 291.572083 875.592102 295.376404 876.250488 C 298.010132 876.762573 306.716125 876.323669 316.373199 875.153198 C 333.19989 873.104858 339.491608 872.665894 340.296356 873.470642 C 340.881622 874.055847 340.881622 874.567932 340.150055 875.445801 C 338.979492 876.835754 339.564789 881.737122 341.174255 884.224426 C 341.832703 885.175415 343.588531 886.345886 345.051758 886.78479 C 348.490234 887.80896 367.877533 889.491577 387.337982 890.442566 C 395.385529 890.88147 407.895813 891.466736 415.06546 891.83252 C 429.185242 892.564087 428.453674 892.271423 431.014221 896.953369 C 431.672668 898.19696 433.355347 899.879578 434.672211 900.684265 C 436.720703 902.001038 437.818085 902.22052 442.207672 901.854736 C 447.328827 901.415771 449.816254 900.976868 465.106598 897.465454 C 486.469208 892.490906 497.882111 888.321045 510.246063 880.712952 C 517.927795 876.031067 521.585815 873.031677 527.877563 866.447754 C 532.852356 861.326904 533.21814 861.107422 534.827698 861.985291 C 539.070923 864.399414 552.020203 866.813538 556.336609 866.00885 C 560.287231 865.277283 563.798889 861.473206 564.384155 857.230225 C 565.481506 849.987915 560.726196 845.305969 543.753174 836.893188 C 536.80304 833.454895 531.681824 830.455566 531.462341 829.723999 C 531.242859 829.065613 532.26709 824.749451 533.730286 820.140686 C 536.144592 812.386292 540.022034 799.364685 541.338928 794.243896 C 541.704651 793.000244 543.972656 785.31897 546.460083 777.05249 C 554.800232 749.18042 554.727112 749.253601 563.067322 744.279053 C 567.603149 741.572327 570.529602 740.767639 578.211365 740.182373 C 590.7948 739.231384 616.107971 730.452759 639.738525 718.894287 C 680.12262 699.215637 707.337952 679.610107 737.040771 649.031372 C 762.06134 623.354004 779.107544 599.578613 793.812622 570.024048 C 799.665344 558.172974 800.323792 556.417236 800.323792 552.247437 C 800.323792 547.492371 798.348511 544.200439 794.397888 542.664124 C 790.88623 541.20105 788.179321 541.786255 782.911804 544.931946 C 779.253845 547.199707 759.939697 555.905151 753.501709 558.319275 C 752.111694 558.83136 749.91687 559.709229 748.599976 560.221313 C 743.551941 562.489136 743.259277 561.099182 747.429443 555.319946 C 752.257935 548.736023 763.817139 526.350586 766.011963 519.54718 C 766.304565 518.52301 767.475159 515.377319 768.49939 512.597473 C 773.18158 500.234283 775.156921 491.894623 774.352173 488.017426 C 773.766907 485.38385 770.328369 482.457642 767.109314 481.872406 C 764.256165 481.28717 760.963928 482.530792 754.59906 486.554321 C 749.697388 489.626831 741.64978 493.577179 738.72345 494.308746 C 735.211792 495.186584 735.284912 494.308746 739.089233 482.603943 C 741.57666 474.776367 744.064087 466.583038 745.161438 462.486359 C 748.380493 450.123199 749.477905 431.395508 747.283081 426.055206 C 745.015198 420.714905 740.991394 417.861847 735.577576 417.861847 C 731.626953 417.861847 729.871155 418.666565 720.21405 425.177368 C 702.070496 437.321075 690.877014 442.734528 673.757751 447.562775 C 660.588989 451.29364 641.786987 452.756775 631.325134 450.854736 C 620.717041 448.879547 615.815369 446.684906 586.18573 430.225067 C 542.50946 406.010773 514.489319 394.525452 474.397888 384.210632 C 461.814423 380.991821 447.914124 378.650879 431.380035 376.895142 C 422.015625 375.870911 392.239685 375.578308 383.094727 376.456177 L 376.583527 377.041443 L 373.14502 373.456848 C 365.097473 365.117188 358.513092 345.73114 358.439941 330.22229 C 358.439941 324.516174 359.976318 313.104065 361.658966 306.227478 C 364.439026 294.888428 366.414307 289.91394 372.413422 278.135986 C 375.99823 271.113159 376.729858 269.796326 384.33844 256.628479 C 402.92099 224.440308 411.114838 193.934692 411.114838 156.333069 C 411.114838 125.534851 405.408386 99.345398 393.556519 75.131104 C 384.045807 55.818237 374.16925 42.65033 360.415253 31.165039 C 341.905884 15.583008 323.615967 6.877625 299.912292 2.049377 C 294.937408 1.025208 276.42807 -0.73053 273.64798 -0.511047 C 272.989563 -0.437866 268.892609 -0.145264 264.429871 0.220459 Z M 287.109344 21.069641 C 295.230072 22.093811 297.498016 22.605896 306.862427 25.239502 C 329.980865 31.823486 352.952972 48.429565 365.829041 67.815674 C 377.534607 85.372864 385.728455 107.392456 389.605927 131.460449 C 391.508057 143.457764 391.361755 168.696228 389.313263 180.474182 C 384.704224 206.809937 378.412506 223.050354 361.366333 252.897522 C 346.002838 279.599121 341.101135 292.766968 338.394226 313.835632 C 336.93103 325.174622 336.93103 332.124329 338.321075 342.878113 C 339.930542 355.168091 341.905884 362.117798 346.22229 370.896423 C 350.90448 380.260254 358.952057 391.599243 363.268494 394.891235 L 365.975372 397.012695 L 393.849152 397.012695 C 421.430359 397.012695 425.819916 397.305359 444.76825 400.012054 C 479.080109 404.913452 510.392395 415.520905 549.752258 435.419037 C 568.920044 445.0755 572.943848 447.270142 579.016113 451.147339 C 588.599976 457.219208 605.719299 465.851471 613.766846 468.704529 C 624.740784 472.508575 633.227295 473.679047 647.054504 473.240112 C 662.198547 472.728027 674.050354 470.533386 689.999146 465.119934 C 699.144165 461.974274 719.263 451.586273 724.237854 447.343292 C 728.55426 443.758698 729.285828 446.02652 726.6521 454.805115 C 721.457764 472.289124 712.971252 489.187897 706.386902 495.259766 C 703.679993 497.74704 702.50946 498.259125 698.119873 499.063812 C 687.292236 500.819519 683.92688 498.91748 690.291748 494.528198 C 698.558777 488.822144 702.43634 483.701263 703.387329 476.971008 C 704.118958 471.92337 702.875244 471.850189 695.339844 476.385803 C 688.974915 480.263 672.660339 488.236908 669.368164 489.114746 C 662.783813 490.943604 659.564758 491.675171 654.370422 492.845642 C 642.372314 495.479218 637.690063 496.796021 636.592712 497.893341 C 634.178406 500.307465 639.519043 504.477264 651.078247 509.15918 C 664.759094 514.718994 684.000061 518.815613 696.656616 518.815613 C 704.704224 518.815613 719.409302 516.694153 728.188416 514.353149 C 732.651184 513.109558 737.991821 511.719635 739.967102 511.20752 C 742.015625 510.622284 744.210388 509.963898 744.868835 509.671295 C 747.575745 508.573944 746.990479 511.573303 743.039856 519.327759 C 738.942932 527.374756 738.430786 528.398926 732.431702 538.933228 C 725.481567 551.223267 714.727051 566.293213 706.24054 575.510742 C 702.289978 579.900024 699.363586 584.72821 699.363586 586.849731 C 699.363586 588.898071 700.6073 590.361145 703.679993 591.970581 C 706.167419 593.287354 714.214966 591.897339 729.724792 587.581299 C 742.161926 584.069824 748.526855 581.948364 756.501221 578.36377 C 765.207153 574.559692 766.67041 574.047607 766.67041 574.779114 C 766.67041 577.41272 737.406555 617.208984 728.261658 627.0849 C 725.774231 629.718506 723.286804 632.425171 722.701477 633.156738 C 721.604065 634.473511 703.46051 651.591797 699.290405 655.249512 C 689.560242 663.808655 675.659912 673.830872 662.783813 681.731628 C 640.762756 695.192139 626.130798 702.288147 603.524536 710.481506 C 598.915466 712.164063 593.501648 714.212402 591.599548 715.01709 C 586.25885 717.138611 585.527222 716.480225 587.868408 711.798279 C 590.575317 706.384827 592.550598 700.459229 592.550598 697.459961 C 592.550598 692.631714 588.526794 688.535034 583.698303 688.535034 C 580.771912 688.535034 577.04071 692.26593 573.968018 698.264648 C 572.797485 700.532471 569.285828 705.799561 566.066772 710.042542 C 552.166504 728.4776 541.485229 734.403137 515.367249 738.280396 C 495.02887 741.279724 484.274445 742.084412 461.960754 742.084412 C 449.084656 742.084412 436.281738 741.718628 432.331116 741.206543 C 428.526825 740.767639 422.747223 740.109253 419.528198 739.743469 C 402.99411 737.841431 389.313263 735.134705 366.487488 729.062866 C 350.977661 724.966187 324.054962 715.675476 310.520416 709.749939 C 308.910889 709.018372 305.765045 707.701599 303.570251 706.75061 C 294.13269 702.800232 276.574371 693.216919 262.235107 684.292053 C 233.337067 666.295898 202.244232 636.814453 185.344376 611.356567 C 174.736237 595.408813 165.81076 576.608032 159.22641 556.124634 C 158.129013 552.68634 155.056305 539.737915 153.666275 532.715088 C 152.203094 525.180115 150.666733 507.549774 150.666733 497.966461 C 150.666733 469.509247 161.274872 427.957245 175.394684 401.036255 C 190.685028 371.920593 205.609573 350.120422 232.605469 317.639648 C 246.286301 301.252991 249.212692 297.229431 254.772812 287.572998 C 263.332489 272.576233 266.990448 260.505676 267.13678 246.313599 C 267.429443 223.562378 259.528198 209.882507 240.653015 200.518616 C 237.068207 198.762939 218.339355 192.69104 211.389191 191.081665 C 198.732574 188.155457 193.830902 186.180237 193.830902 183.985596 C 193.830902 183.400391 194.855133 181.644714 196.025681 180.108398 C 199.171539 176.0849 201.878448 169.647278 201.878448 165.989563 C 201.878448 161.307617 198.439941 155.967285 193.245605 152.38269 C 186.588089 147.847046 181.832718 142.287292 180.442673 137.166504 C 178.833176 131.606689 178.906326 130.143616 180.735336 120.852966 C 183.076431 109.075012 183.588547 105.344116 183.076431 102.344788 C 182.49115 98.687012 180.003723 96.711853 175.760468 96.711853 C 171.80986 96.711853 171.370895 95.760864 172.980408 90.932617 C 174.370438 86.689636 184.393295 70.156555 190.319214 62.329041 C 201.366333 47.624878 219.290421 34.31073 237.36084 27.287842 C 254.480179 20.630737 269.404755 18.728699 287.109344 21.069641 Z M 159.738525 127.217407 C 160.031158 130.802002 160.762772 135.776489 161.348038 138.410095 C 162.811218 144.774597 167.639771 154.43103 171.590378 158.820313 C 173.346207 160.795532 174.809387 162.916992 174.809387 163.502258 C 174.809387 164.892212 165.29866 170.159363 156.153702 173.890198 C 152.568878 175.353394 148.910919 176.816467 148.106155 177.18219 C 146.057678 178.13324 136.766418 181.132629 129.450455 183.254089 C 123.670845 184.936646 118.476524 186.107117 108.234177 188.082275 C 101.210854 189.472229 83.286766 191.081665 75.531853 191.081665 C 66.386902 191.081665 47.292248 189.325989 35.440399 187.42395 C 30.611866 186.619202 24.685942 185.887634 22.344835 185.814514 C 17.369984 185.595032 16.565228 184.644043 19.125814 182.083557 C 20.808483 180.401001 21.466921 180.327881 33.318771 179.888916 C 50.145477 179.303711 60.973091 177.18219 75.970802 171.622437 C 96.016533 164.160645 111.672684 153.406921 121.183426 140.604736 C 127.401985 132.191956 131.498932 129.119446 138.961197 127.43689 C 145.399261 126.046936 154.836838 122.974426 156.300018 121.877136 C 158.78746 119.975098 159.22641 120.706665 159.738525 127.217407 Z M 186.368607 170.378845 C 186.661255 172.280884 176.418915 181.571472 174.004654 181.571472 C 173.053574 181.571472 171.444046 182.449402 170.492981 183.400391 C 169.541916 184.424561 168.371353 185.229309 167.859238 185.229309 C 167.347122 185.229309 164.493896 186.326599 161.567505 187.716553 C 155.275803 190.6427 153.227325 191.374268 139.69281 195.83667 C 128.57254 199.567627 118.110725 202.201233 108.965782 203.591187 C 101.064537 204.834778 78.311913 204.834778 70.1912 203.591187 C 59.875698 202.054871 46.194855 198.83606 45.024303 197.665588 C 44.658508 197.299866 43.707432 196.934021 42.975838 196.934021 C 42.24424 196.934021 41.658962 196.568298 41.658962 196.202515 C 41.658962 195.324646 44.365868 195.251465 44.877987 196.129333 C 45.097462 196.495117 47.21909 196.934021 49.487038 197.226624 C 51.828144 197.446106 55.705601 197.958191 58.119869 198.323975 C 70.703316 200.372314 103.186172 200.006592 113.647987 197.738708 C 115.2575 197.372986 118.622841 196.641418 121.037109 196.202515 C 136.912735 192.983704 164.78653 181.352051 179.564774 171.768799 C 184.978592 168.257324 186.002823 168.037842 186.368607 170.378845 Z M 408.846893 760.59259 C 410.163757 761.836243 409.359039 765.494019 402.628326 790.586121 C 401.677277 794.170715 400.506714 798.633179 400.1409 800.462036 C 399.775116 802.290894 399.116669 804.9245 398.677734 806.314453 C 398.31192 807.704346 397.946106 810.776855 397.946106 813.190979 C 397.946106 817.068176 395.824493 826.212524 393.190765 833.381714 C 391.581238 837.844177 389.240143 838.868347 373.437653 841.794556 C 369.852844 842.452942 364.731659 843.477112 362.171082 844.135498 C 355.294067 845.744934 348.563385 847.208008 342.344849 848.378479 C 339.345276 848.963745 334.736267 849.987915 332.102478 850.57312 C 322.664917 852.767761 312.129944 854.59668 308.618256 854.59668 C 306.862427 854.59668 305.545563 854.084595 304.667633 853.133545 C 303.3508 851.670471 303.3508 851.59729 305.25293 849.768433 C 307.447723 847.720093 307.813507 845.013367 306.057678 843.257629 C 305.033447 842.233459 303.643433 842.160339 296.327484 842.526123 C 290.40152 842.891846 284.8414 842.672424 278.037567 841.867676 C 264.649353 840.258301 264.35672 839.746216 275.47699 838.06366 C 279.500763 837.405273 286.085114 836.088501 290.182068 835.137451 C 294.352142 834.186462 298.668579 833.381714 299.839111 833.381714 C 302.180206 833.381714 303.42392 832.211243 302.253387 831.040771 C 301.887573 830.674988 299.473297 830.162903 296.91275 829.943481 C 291.425781 829.431396 289.084656 828.553528 290.328369 827.309875 C 290.840515 826.797791 301.960754 826.358887 324.567047 825.919922 C 346.075958 825.554138 361.585785 824.968933 367.950714 824.237366 C 380.973114 822.774292 382.289948 822.481628 383.606842 821.091736 C 384.850555 819.628601 389.605927 805.436584 392.459137 794.609619 C 393.556519 790.366638 394.873413 785.611572 395.385529 784.002197 C 395.897644 782.392761 397.068207 778.588684 397.946106 775.589355 C 398.897186 772.590027 400.214081 768.200684 400.945648 765.786621 C 401.750397 763.445679 402.335693 761.104675 402.335693 760.59259 C 402.335693 758.54425 406.798431 758.617432 408.846893 760.59259 Z M 527.804382 759.4953 C 528.096985 759.934204 527.804382 761.982544 527.145935 764.104004 C 525.682739 769.298035 521.073669 786.855225 519.025208 795.341187 C 517.196228 802.87616 515.001465 811.069519 512.733521 819.116516 C 509.807129 829.285034 509.00235 833.089111 508.929169 837.771057 C 508.782867 841.721375 509.0755 842.891846 510.538696 844.867065 L 512.294556 847.134888 L 510.685028 850.426819 C 507.539154 856.937622 498.833191 863.082642 487.127625 867.10614 C 480.104309 869.447083 456.91272 876.396851 450.108917 878.225708 C 443.231873 879.981384 441.988159 879.615662 443.305054 876.177368 C 444.256134 873.616943 442.866089 871.788086 439.427612 871.129639 C 438.110718 870.837036 424.941986 870.105469 410.017426 869.593445 C 381.338867 868.422913 376.729858 868.05719 376.729858 866.740356 C 376.729858 864.911499 383.753174 863.667847 403.067291 861.91217 C 407.310547 861.546387 415.06546 860.741699 420.259796 860.083252 C 425.527252 859.424866 433.355347 858.620178 437.671783 858.327576 C 441.988159 857.961792 445.79248 857.449707 446.085114 857.230225 C 447.109375 856.206055 444.402435 855.547668 437.159637 855.035583 C 428.965759 854.523499 422.454559 852.914124 416.089691 849.914734 C 411.846436 847.866394 409.797974 846.183838 410.675873 845.232849 C 411.33432 844.647583 437.232819 844.574463 463.789734 845.086548 C 485.152344 845.452271 489.980865 845.013367 492.760956 842.306641 C 496.272583 838.868347 499.345306 830.601868 505.929657 807.045959 C 506.588074 804.851318 507.319702 802.217773 507.685486 801.193604 C 508.05127 800.169434 509.148682 796.365356 510.246063 792.780762 C 511.270294 789.123047 513.099304 783.051147 514.196716 779.247131 C 515.367249 775.443054 516.903625 770.029602 517.635193 767.249695 C 519.317871 761.104675 521.293152 758.763733 524.80481 758.763733 C 526.194824 758.763733 527.5849 759.129517 527.804382 759.4953 Z M 496.93103 763.884583 C 496.857849 764.469849 496.199432 766.810791 495.394684 769.005432 C 494.077789 772.663147 491.809875 780.051819 488.956635 789.854553 C 484.78653 804.631836 481.128571 816.40979 479.738525 819.994385 L 478.055847 824.237366 L 470.959381 824.456848 L 463.862915 824.67627 L 458.668579 819.848083 C 455.742188 817.214478 452.011017 814.28833 450.328369 813.26416 C 446.231415 810.850037 432.257935 806.314453 428.892609 806.314453 C 428.08786 806.314453 426.405212 805.948669 425.088318 805.509705 C 423.039856 804.778198 422.820374 804.412415 422.820374 801.705688 C 422.820374 800.023071 423.551971 796.145874 424.35672 793.146545 C 426.770966 784.441101 427.941528 779.393433 429.697388 771.200073 L 431.306885 763.518799 L 451.791565 763.738281 C 462.984955 763.811401 476.300049 763.591919 481.348022 763.226196 C 493.858337 762.348328 497.077332 762.494629 496.93103 763.884583 Z"/>
        <path id="path1" fill="#000000" stroke="none" d="M 252.651184 61.158508 C 245.188904 62.987427 239.043518 67.961914 236.117126 74.6922 C 235.09288 76.886841 234.434464 80.251953 234.214966 84.348633 C 233.849182 91.810425 235.239197 95.614502 240.360382 101.101135 C 245.262085 106.368286 249.578476 107.904541 257.84552 107.538757 C 266.332031 107.172974 269.112091 105.63678 277.013336 97.004456 L 282.792938 90.786255 L 287.54834 90.127869 C 293.766876 89.323181 297.132202 88.07959 296.839569 86.616455 C 296.693237 86.031189 294.425323 84.568115 291.791565 83.470825 C 286.158264 81.056702 283.744019 79.008362 279.573914 72.863342 C 274.818542 65.840515 270.209473 62.548523 262.747192 60.939087 C 258.138153 59.988037 257.479736 59.988037 252.651184 61.158508 Z M 261.869293 79.812988 C 265.3078 82.227112 264.503052 86.909058 260.332947 89.103699 C 254.407028 92.17627 248.407928 84.568115 253.309631 80.105713 C 256.236023 77.398926 258.357635 77.325745 261.869293 79.812988 Z"/>
        <path id="path2" fill="#000000" stroke="none" d="M 403.433075 436.882141 C 400.653015 437.174744 397.141357 437.979462 395.678162 438.637878 C 386.094269 442.734528 387.264801 454.512482 397.434021 456.633972 C 399.555634 456.999756 408.846893 457.731293 418.065002 458.097076 C 438.695984 458.974915 443.012421 459.56015 460.863342 463.510529 C 478.34848 467.387756 504.173828 476.971008 526.341187 487.724823 C 533.730286 491.309387 545.143188 498.91748 544.777405 500.014801 C 544.33844 501.404785 537.168762 501.477936 528.755432 500.161133 C 516.318298 498.259125 513.026123 498.039642 508.709717 499.063812 C 497.735779 501.697388 498.979492 512.743774 510.611877 516.035767 C 512.806641 516.694153 516.4646 517.572021 518.659424 518.084106 C 524.877991 519.473999 530.803894 521.59552 537.241943 524.66803 C 543.167908 527.521118 545.582153 528.837891 561.09198 537.689575 C 572.212219 543.980957 573.894897 544.931946 583.405701 549.906494 C 587.868408 552.247437 595.111145 556.124634 599.500732 558.465576 C 610.108887 564.171631 633.885803 575.876465 634.909973 575.876465 C 635.348938 575.876465 635.714722 576.38855 635.714722 577.046936 C 635.714722 578.875793 631.83728 580.119446 608.426208 586.045044 C 593.428528 589.848999 592.477478 590.726929 596.135437 597.822937 C 597.37915 600.16394 598.183899 602.578003 597.964417 603.163208 C 597.744934 603.748535 596.208557 604.845825 594.525879 605.577393 C 591.81897 606.820984 589.551025 606.967285 571.700134 606.894165 C 554.361328 606.820984 550.410706 606.601501 539.144104 604.918945 C 515.51355 601.407532 512.148193 601.407532 510.246063 605.138428 C 508.636536 608.210938 508.929169 611.063965 510.977661 613.55127 C 513.68457 616.696899 513.172424 618.598938 509.514496 618.891541 C 506.295441 619.184204 492.614594 617.940552 486.68869 616.843201 C 484.567078 616.404297 480.909088 615.74585 478.641144 615.307007 C 435.55011 607.259888 393.190765 584.947693 372.340271 559.416626 C 364.000061 549.248047 358.513092 540.10376 351.78244 525.472778 C 346.734406 514.645813 341.686401 511.353851 335.10202 514.572632 C 332.395111 515.962646 331.517212 516.840454 330.639313 519.327759 C 329.688232 522.107605 329.688232 522.912292 330.931946 527.374756 C 331.590393 530.154663 334.736267 537.616455 337.88208 544.054077 C 349.00238 566.951538 361.0737 581.436279 382.216827 597.530273 C 392.532318 605.284729 396.482941 607.698853 409.432159 614.209595 C 433.135864 626.06073 452.157379 631.986267 482.079651 637.033936 C 500.223206 640.033325 525.902222 641.203796 530.584412 639.228638 C 533.803467 637.911804 535.486145 635.131958 535.486145 631.254761 C 535.486145 626.426514 536.071411 626.207031 546.533264 627.158081 C 558.750854 628.255371 595.696411 627.596985 601.695496 626.133911 C 612.815796 623.500305 616.181152 620.574097 618.156433 611.722412 C 618.595398 609.52771 619.180664 607.113647 619.327026 606.4552 C 619.546448 605.723633 620.936462 604.845825 622.765503 604.33374 C 631.617798 601.992798 646.542358 596.579285 653.712036 593.067871 C 667.539124 586.337646 671.928711 579.46106 667.831787 570.901917 C 665.929626 567.0979 661.393738 563.952271 653.27301 560.8797 C 650.273499 559.709229 645.298645 557.660889 642.299072 556.270996 C 635.934204 553.417908 612.303711 541.640015 611.206299 540.762085 C 610.840515 540.469482 607.54834 538.640625 603.89032 536.738586 C 600.305481 534.763428 596.354919 532.641907 595.111145 531.983521 C 593.940613 531.325134 590.941101 529.642578 588.526794 528.325806 C 586.11261 527.008972 581.064514 524.009644 577.333435 521.59552 C 573.602295 519.254578 570.310059 517.352539 570.017456 517.352539 C 569.285828 517.279419 566.213135 514.645813 566.213135 514.060547 C 566.213135 513.841064 568.042175 513.841064 570.236938 514.060547 C 575.358093 514.718994 580.186646 513.475342 583.039856 510.768616 C 586.039368 507.988739 586.039368 504.038361 583.186157 500.087982 C 577.699219 492.55304 541.631531 470.752869 516.098877 459.487 C 506.149139 455.097717 491.297729 449.757416 479.519043 446.392273 C 478.34848 446.09964 475.056305 445.148621 472.203094 444.343964 C 467.15509 442.880859 453.840027 439.8815 449.523621 439.296265 C 436.720703 437.467377 430.941101 436.882141 420.62561 436.589539 C 413.968048 436.443207 406.286316 436.516357 403.433075 436.882141 Z"/>
        <path id="path3" fill="#000000" stroke="none" d="M 129.011505 140.8974 C 126.304596 143.604126 125.79248 144.481995 125.79248 147.042419 C 125.79248 149.383362 126.231438 150.334412 127.987267 151.797485 C 131.206284 154.504211 133.986343 154.943115 137.717484 153.114258 C 139.400162 152.30957 141.375473 150.627014 142.107071 149.456482 C 143.350784 147.335022 143.716583 143.238342 142.911819 140.97052 C 142.180237 139.214844 138.668564 137.678528 135.230057 137.678528 C 132.596329 137.678528 131.718399 138.117493 129.011505 140.8974 Z"/>
    </g>
</svg>
